HIERARCHY
ROOT Hips
{
  OFFSET 265.287 66.7526 -254.649
  CHANNELS 6 Xposition Yposition Zposition Zrotation Xrotation Yrotation
  JOINT LeftUpLeg
  {
    OFFSET 8.64259 1.95398 -2.38835
    CHANNELS 3 Zrotation Xrotation Yrotation
    JOINT LeftLeg
    {
      OFFSET 43.7702 0 0
      CHANNELS 3 Zrotation Xrotation Yrotation
      JOINT LeftFoot
      {
        OFFSET 40.6238 0 0
        CHANNELS 3 Zrotation Xrotation Yrotation
        JOINT LeftToeBase
        {
          OFFSET 12.7242 0 0
          CHANNELS 3 Zrotation Xrotation Yrotation
          End Site
          {
            OFFSET 0 0 0
          }
        }
      }
    }
  }
  JOINT RightUpLeg
  {
    OFFSET -8.2249 1.95398 -2.59336
    CHANNELS 3 Zrotation Xrotation Yrotation
    JOINT RightLeg
    {
      OFFSET 43.5653 0 0
      CHANNELS 3 Zrotation Xrotation Yrotation
      JOINT RightFoot
      {
        OFFSET 40.6238 0 0
        CHANNELS 3 Zrotation Xrotation Yrotation
        JOINT RightToeBase
        {
          OFFSET 12.7242 0 0
          CHANNELS 3 Zrotation Xrotation Yrotation
          End Site
          {
            OFFSET 0 0 0
          }
        }
      }
    }
  }
  JOINT Spine
  {
    OFFSET 0.165834 0.87714 6.61349
    CHANNELS 3 Zrotation Xrotation Yrotation
    JOINT Spine1
    {
      OFFSET 7.38963 1.71661e-005 0
      CHANNELS 3 Zrotation Xrotation Yrotation
      JOINT Spine2
      {
        OFFSET 11.9445 1.14441e-005 0
        CHANNELS 3 Zrotation Xrotation Yrotation
        JOINT Spine3
        {
          OFFSET 14.7254 4.19617e-005 0
          CHANNELS 3 Zrotation Xrotation Yrotation
          JOINT Spine4
          {
            OFFSET 10.9679 0 0
            CHANNELS 3 Zrotation Xrotation Yrotation
            JOINT RightShoulder
            {
              OFFSET 2.46616 -1.6653 3.69651
              CHANNELS 3 Zrotation Xrotation Yrotation
              JOINT RightArm
              {
                OFFSET 13.0012 0 0
                CHANNELS 3 Zrotation Xrotation Yrotation
                JOINT RightForeArm
                {
                  OFFSET 28.7848 1.52588e-005 0
                  CHANNELS 3 Zrotation Xrotation Yrotation
                  JOINT RightHand
                  {
                    OFFSET 26.5688 1.52588e-005 0
                    CHANNELS 3 Zrotation Xrotation Yrotation
                    End Site
                    {
                      OFFSET 0 0 0
                    }
                  }
                }
              }
            }
            JOINT LeftShoulder
            {
              OFFSET 2.38034 -1.29275 -3.7523
              CHANNELS 3 Zrotation Xrotation Yrotation
              JOINT LeftArm
              {
                OFFSET 16.3182 6.10351e-005 0
                CHANNELS 3 Zrotation Xrotation Yrotation
                JOINT LeftForeArm
                {
                  OFFSET 27.0901 0 0
                  CHANNELS 3 Zrotation Xrotation Yrotation
                  JOINT LeftHand
                  {
                    OFFSET 24.5451 1.52588e-005 0
                    CHANNELS 3 Zrotation Xrotation Yrotation
                    End Site
                    {
                      OFFSET 0 0 0
                    }
                  }
                }
              }
            }
            JOINT Neck
            {
              OFFSET 5.0226 -0.0266342 0
              CHANNELS 3 Zrotation Xrotation Yrotation
              JOINT Head
              {
                OFFSET 6.69364 2.86102e-005 0
                CHANNELS 3 Zrotation Xrotation Yrotation
                End Site
                {
                  OFFSET 0 0 0
                }
              }
            }
          }
        }
      }
    }
  }
}
MOTION
Frames:	10
Frame Time:	0.0416667
-6.83443 82.4096 -8.43168 17.9849 -76.4068 18.4435 -175.275 53.3793 88.3121 -65.6289 8.80326 0.408684 79.5706 11.051 6.5853 34.143 -1.65475 -0.134437 163.579 53.8349 89.5009 -63.2516 -19.248 4.88027 75.9277 -13.3602 -7.48832 33.923 -1.00074 3.65727 0.330914 13.7474 -90.6652 -0.620612 0.417813 -1.26857 -12.2921 0.361578 -1.28574 -34.824 0.779728 -1.08439 -14.8114 0.779736 -1.0844 97.8929 -17.5786 -93.0781 4.54077 5.82276 -77.0834 6.96959 38.6521 -8.55166 -7.92056 0.0856889 -6.86018 -91.8915 -30.0486 69.5481 -4.88339 -7.7429 -81.8289 1.08583 -30.1985 0.0875797 -0.146399 -0.243718 -12.2299 5.90851 -4.41463 14.0306 24.2743 -8.96159 -7.86029 
-6.88579 84.1345 -7.78874 16.1345 -76.4927 16.9137 -175.239 50.8938 89.0092 -61.7639 8.95244 0.426559 78.5088 10.2009 5.88361 33.5671 -1.49497 0.150146 165.3 51.0706 89.1865 -58.911 -18.3806 5.04572 74.6012 -12.3936 -7.61339 34.0985 -0.995762 3.36951 0.308988 13.1712 -90.618 0.531736 0.385696 -1.18651 -11.1397 0.333112 -1.20233 -33.6719 0.72444 -1.01576 -13.6593 0.724442 -1.01576 97.3394 -20.9077 -93.7216 6.04547 2.22331 -72.8532 9.47563 34.4096 -13.6234 -8.45694 0.102955 -6.97666 -92.271 -33.3229 70.0714 -5.14808 -4.36401 -76.8378 -0.419194 -27.366 -1.49831 -0.739626 -0.211308 -12.7315 8.6749 -3.85911 15.0062 23.8029 -9.06452 -8.52311 
-6.77041 85.8861 -7.05831 19.3858 -76.4942 20.65 -175.894 48.036 89.5351 -57.5929 9.40236 0.698962 77.0798 9.41487 5.69695 33.1301 -1.34042 -0.125933 166.824 47.8064 88.5502 -54.7074 -16.2608 5.12712 73.5544 -10.9345 -6.05245 34.3715 -0.923541 1.75124 0.242196 12.5879 -90.6495 1.69762 0.234453 -1.25964 -9.97392 0.178799 -1.26872 -32.5051 0.602159 -1.13096 -12.4925 0.602157 -1.13096 97.0726 -24.8323 -93.5542 7.80428 -1.27213 -68.0484 10.0919 27.6288 -17.8301 -7.15461 0.144783 -8.16401 -92.1633 -35.6444 71.088 -5.72044 -0.820788 -71.3709 -2.87649 -23.9563 -6.69145 -0.350794 -0.234189 -12.496 12.2088 -3.24688 14.1061 21.7946 -8.46261 -8.26066 
-6.72892 87.649 -6.14302 24.5613 -77.5202 26.2342 -176.956 43.7564 90.1849 -53.3026 9.86183 1.33497 75.6526 8.66375 5.66474 33.006 -1.30024 -0.146767 168.032 43.2379 88.0276 -50.2722 -14.7258 5.19239 72.0537 -9.55919 -5.37253 34.4337 -0.937707 1.85396 0.145353 12.0978 -90.6701 2.67655 0.027769 -1.30856 -8.99504 -0.029841 -1.30853 -31.5253 0.419725 -1.23975 -11.5127 0.419733 -1.23975 96.5279 -29.3973 -93.8478 8.44528 -4.13743 -61.6961 10.8419 22.4551 -23.333 -6.19728 0.14127 -8.55391 -91.8924 -38.0564 72.349 -5.45925 2.8826 -65.4525 -6.53633 -24.7806 -12.47 0.373267 -0.27999 -12.2631 14.5475 -2.8811 12.3255 19.9928 -7.47484 -6.87504 
-6.70908 89.2552 -5.05674 27.4356 -78.8111 29.3615 -177.343 39.4759 90.6017 -49.2708 9.24851 1.85063 74.345 7.70207 4.58861 32.9424 -1.31705 0.341719 169.56 38.6241 87.8881 -45.7442 -14.006 4.79637 70.4096 -8.55448 -5.85513 34.6663 -0.945083 1.49024 0.125225 11.5924 -90.698 3.6869 -0.0292503 -1.36671 -7.98479 -0.0893718 -1.36412 -30.5145 0.382818 -1.31234 -10.5018 0.382819 -1.31234 96.4466 -33.2147 -93.3386 9.53269 -7.17463 -55.4778 11.5371 20.4029 -28.3802 -4.94122 0.121204 -9.03242 -91.6096 -40.7907 73.6567 -6.15132 6.23092 -59.783 -9.37028 -24.6704 -18.0694 0.460371 -0.293977 -12.5767 17.6417 -1.91403 12.3608 16.6225 -6.61347 -6.64455 
-6.80013 90.6455 -3.87931 27.5618 -79.7304 28.2895 -176.732 35.3972 89.6455 -44.6512 9.38752 1.59788 72.6807 7.023 4.91178 33.0847 -1.3267 -0.1208 171.249 35.4304 86.7611 -42.4893 -13.0134 3.76787 69.5806 -7.66889 -5.18368 34.9867 -0.974675 1.27913 0.0695759 10.9939 -90.5247 4.88497 -0.0764057 -1.0297 -6.78637 -0.121641 -1.02535 -29.3184 0.236584 -1.00507 -9.30576 0.236583 -1.00507 96.6364 -37.3023 -92.3509 10.7317 -9.19591 -49.2911 10.4909 17.1302 -32.0705 -0.517823 -0.043105 -10.574 -91.2453 -42.393 74.7064 -7.3277 9.70943 -53.871 -12.2803 -24.8899 -23.8211 1.64215 -0.386419 -12.7811 18.7885 -1.4546 12.8266 13.8102 -6.31955 -7.0541 
-6.64575 91.9612 -2.63919 32.3512 -82.0046 33.0177 -176.856 29.9954 89.7436 -40.6384 8.50689 2.05962 71.8969 6.44675 4.2057 32.8838 -1.28243 0.123455 172.436 30.2013 86.5353 -38.7569 -11.5877 2.91675 68.9606 -6.66183 -3.41368 34.1263 -0.823484 0.73346 0.0916553 10.5871 -90.4552 5.69873 -0.00716343 -0.893958 -5.97254 -0.0464845 -0.892771 -28.5054 0.261835 -0.854773 -8.49271 0.261836 -0.854787 97.2406 -39.3966 -90.9726 13.5233 -12.1461 -43.3691 11.6404 17.0565 -36.6947 -0.92709 -0.0206031 -10.0362 -90.8992 -43.3579 75.5249 -7.74896 12.921 -48.225 -14.6184 -24.2856 -29.1972 3.04846 -0.460837 -12.2098 18.6115 -1.35986 11.7008 13.1677 -5.64204 -5.74407 
-6.57068 93.0746 -1.3067 40.3476 -84.1922 41.1241 -176.876 24.7631 89.9694 -36.8881 7.19646 2.56058 71.349 5.8313 2.88491 32.6514 -1.22926 0.36172 173.169 24.8253 86.6571 -34.7914 -10.3762 2.23058 68.6953 -6.04102 -1.96171 33.1025 -0.635817 0.117784 0.111745 10.2153 -90.4149 6.44251 0.0472447 -0.81835 -5.22868 0.0111845 -0.819636 -27.762 0.290996 -0.766325 -7.74932 0.291001 -0.766321 97.483 -41.535 -90.3004 14.8459 -13.9887 -37.6031 11.4591 15.3903 -40.5085 -1.63158 0.0223512 -10.7329 -90.5662 -44.4146 76.328 -8.39172 15.2991 -43.2088 -15.628 -23.0215 -33.2971 2.10284 -0.389066 -11.9991 20.2339 -1.06068 10.617 9.94545 -4.85397 -4.42684 
-6.67425 93.9465 -0.0628982 44.066 -84.9696 44.5123 -176.761 21.1712 89.8359 -33.129 6.94408 2.73473 70.3797 5.40918 2.60828 32.7101 -1.22595 0.0823771 174.017 21.6065 86.6004 -31.8235 -8.66303 1.38045 68.3538 -5.19906 -0.191834 32.7084 -0.587886 0.224963 0.0447144 9.69011 -90.3333 7.49296 -0.0550987 -0.654622 -4.17815 -0.083839 -0.651554 -26.712 0.144188 -0.640911 -6.69938 0.144192 -0.640907 97.9943 -42.9135 -89.2806 16.0118 -15.8737 -32.6113 10.3108 13.2959 -44.0459 -0.0615435 -0.0540323 -10.4801 -89.6969 -45.2104 77.8972 -9.17258 17.8408 -38.546 -17.3916 -23.1905 -37.3388 2.99774 -0.462824 -12.2998 21.9252 -0.520518 9.87904 5.35001 -4.04545 -3.90847 
-6.52461 94.6331 0.968115 52.1415 -86.1066 52.7199 -177.003 17.7115 89.8201 -30.195 6.14662 3.2315 69.5939 5.07933 2.41634 32.8125 -1.2641 0.16516 174.417 18.2456 86.7208 -29.0082 -8.63961 0.901569 67.5318 -4.38212 0.589569 32.5718 -0.522321 -0.343322 -0.0116614 9.19587 -90.305 8.48132 -0.157987 -0.592949 -3.18975 -0.18393 -0.585432 -25.7238 0.0275205 -0.613019 -5.71117 0.0275163 -0.613023 98.1004 -44.5021 -88.9566 16.1319 -18.1586 -27.7117 11.2599 13.3942 -48.0604 -0.313125 -0.0393001 -9.9877 -88.7493 -46.5717 79.6844 -9.98899 19.8716 -33.5229 -19.6234 -23.3349 -42.0141 2.85126 -0.446141 -12.1502 19.5981 -0.274767 8.64968 4.1586 -3.10398 -2.82383 
